<svg width="24" height="24" viewBox="0 0 24 24" version="1.1" xmlns="http://www.w3.org/2000/svg" xmlns:xlink="http://www.w3.org/1999/xlink">
<title>Group 3</title>
<desc>Created using Figma</desc>
<g id="Canvas" transform="translate(-6486 -1151)">
<g id="Group 3">
<g id="Group 2">
<g id="Rectangle 48">
<use xlink:href="#path0_fill" transform="translate(6486 1151)" fill="#212020"/>
</g>
</g>
<g id="TS">
<use xlink:href="#path1_fill" transform="translate(6489 1155)" fill="#F3F3F3"/>
</g>
</g>
</g>
<defs>
<path id="path0_fill" d="M 0 0L 24 0L 24 24L 0 24L 0 0Z"/>
<path id="path1_fill" d="M 9.48828 6.0752L 8.96191 6.0752C 8.82064 5.66048 8.59277 5.21615 8.27832 4.74219C 7.96842 4.26823 7.68132 4.01302 7.41699 3.97656C 7.27116 3.95833 7.09115 3.94238 6.87695 3.92871C 6.66276 3.91504 6.47819 3.9082 6.32324 3.9082L 6.00195 3.9082L 6.00195 11.5166C 6.00195 11.6807 6.03158 11.8265 6.09082 11.9541C 6.15007 12.0771 6.26628 12.1751 6.43945 12.248C 6.54427 12.2891 6.70605 12.3324 6.9248 12.3779C 7.14811 12.4189 7.33724 12.4486 7.49219 12.4668L 7.49219 13L 2.08496 13L 2.08496 12.4668C 2.21712 12.4531 2.40169 12.4349 2.63867 12.4121C 2.88021 12.3848 3.04427 12.3529 3.13086 12.3164C 3.30859 12.2435 3.42708 12.1455 3.48633 12.0225C 3.54557 11.8994 3.5752 11.7536 3.5752 11.585L 3.5752 3.9082L 3.25391 3.9082C 3.09896 3.9082 2.91439 3.91504 2.7002 3.92871C 2.486 3.94238 2.30599 3.95833 2.16016 3.97656C 1.89583 4.01302 1.60645 4.26823 1.29199 4.74219C 0.982096 5.21615 0.75651 5.66048 0.615234 6.0752L 0.0888672 6.0752L 0.0888672 3.2998L 9.48828 3.2998L 9.48828 6.0752ZM 14.123 13.2598C 13.5306 13.2598 12.9769 13.1868 12.4619 13.041C 11.9515 12.8952 11.5186 12.722 11.1631 12.5215L 10.6914 13L 10.1104 13L 10.0215 9.49316L 10.6094 9.49316C 10.7415 9.82585 10.9102 10.1768 11.1152 10.5459C 11.3203 10.915 11.5573 11.2454 11.8262 11.5371C 12.1042 11.8424 12.4141 12.0908 12.7559 12.2822C 13.1022 12.4736 13.5055 12.5693 13.9658 12.5693C 14.5856 12.5693 15.0596 12.4189 15.3877 12.1182C 15.7204 11.8128 15.8867 11.43 15.8867 10.9697C 15.8867 10.5915 15.7454 10.2747 15.4629 10.0195C 15.1849 9.75977 14.752 9.53646 14.1641 9.34961C 13.7812 9.22656 13.4281 9.11263 13.1045 9.00781C 12.7855 8.90299 12.4847 8.7959 12.2021 8.68652C 11.5505 8.42676 11.0651 8.05534 10.7461 7.57227C 10.4316 7.08919 10.2744 6.54915 10.2744 5.95215C 10.2744 5.57389 10.3564 5.21159 10.5205 4.86523C 10.6846 4.51432 10.9238 4.19987 11.2383 3.92188C 11.5391 3.66211 11.9242 3.4502 12.3936 3.28613C 12.863 3.12207 13.3734 3.04004 13.9248 3.04004C 14.4626 3.04004 14.9661 3.11523 15.4355 3.26562C 15.9049 3.41146 16.2741 3.55957 16.543 3.70996L 16.96 3.2998L 17.5547 3.2998L 17.6094 6.6084L 17.0215 6.6084C 16.8848 6.25293 16.723 5.89062 16.5361 5.52148C 16.3538 5.14779 16.1602 4.83789 15.9551 4.5918C 15.7318 4.32747 15.4743 4.11784 15.1826 3.96289C 14.891 3.80339 14.5492 3.72363 14.1572 3.72363C 13.665 3.72363 13.2617 3.86263 12.9473 4.14062C 12.6374 4.41862 12.4824 4.7627 12.4824 5.17285C 12.4824 5.56022 12.6169 5.87695 12.8857 6.12305C 13.1592 6.36914 13.583 6.58561 14.1572 6.77246C 14.4945 6.88639 14.8385 7.00033 15.1895 7.11426C 15.5404 7.22819 15.8525 7.33757 16.126 7.44238C 16.7868 7.69759 17.2881 8.05078 17.6299 8.50195C 17.9762 8.94857 18.1494 9.50456 18.1494 10.1699C 18.1494 10.5892 18.0514 10.9948 17.8555 11.3867C 17.6595 11.7786 17.3952 12.1045 17.0625 12.3643C 16.6979 12.6514 16.2764 12.8724 15.7979 13.0273C 15.3193 13.1823 14.7611 13.2598 14.123 13.2598Z"/>
</defs>
</svg>
